/* XPM */
static char *calculator_32x32[] = {
/* columns rows colors chars-per-pixel */
"32 32 232 2 ",
"   c #2E3436",
".  c #2F3436",
"X  c #2F3537",
"o  c #2F3538",
"O  c #303537",
"+  c #313638",
"@  c #303639",
"#  c #343A3B",
"$  c #404444",
"%  c #414545",
"&  c #434746",
"*  c #444847",
"=  c #454947",
"-  c #464947",
";  c #474A48",
":  c #474B4A",
">  c #484B49",
",  c #494C4A",
"<  c #484C4B",
"1  c #4B4E4B",
"2  c #4D4F4B",
"3  c #4C4F4C",
"4  c #4D504D",
"5  c #4E504C",
"6  c #4F504D",
"7  c #4E514D",
"8  c #4E514E",
"9  c #4F544D",
"0  c #50524E",
"q  c #50524F",
"w  c #53544F",
"e  c #51564F",
"r  c #56554E",
"t  c #4D5251",
"y  c #4F5251",
"u  c #535551",
"i  c #545652",
"p  c #555753",
"a  c #555755",
"s  c #565854",
"d  c #575955",
"f  c #575956",
"g  c #585A56",
"h  c #595B57",
"j  c #555959",
"k  c #5C5E5A",
"l  c #5A5C5C",
"z  c #5A5D5C",
"x  c #5A5E5D",
"c  c #5A5E5E",
"v  c #5B5F5E",
"b  c #5C5F5E",
"n  c #5E625D",
"m  c #5C605F",
"M  c #61635E",
"N  c #61635F",
"B  c #5F6260",
"V  c #5F6262",
"C  c #646662",
"Z  c #656763",
"A  c #626664",
"S  c #646765",
"D  c #666864",
"F  c #676964",
"G  c #686B69",
"H  c #6A6C68",
"J  c #6B6D68",
"K  c #6E6F6B",
"L  c #6C6E6C",
"P  c #6D6F6D",
"I  c #6F706C",
"U  c #6F716C",
"Y  c #6F716D",
"T  c #6F706E",
"R  c #70716F",
"E  c #70726E",
"W  c #71736E",
"Q  c #70736F",
"!  c #71736F",
"~  c #72736F",
"^  c #72746F",
"/  c #717270",
"(  c #717371",
")  c #727470",
"_  c #737570",
"`  c #737571",
"'  c #737671",
"]  c #747672",
"[  c #757772",
"{  c #757774",
"}  c #767873",
"|  c #767874",
" . c #777874",
".. c #777974",
"X. c #777975",
"o. c #787A75",
"O. c #787B76",
"+. c #797B77",
"@. c #7C7D79",
"#. c #7C7F7A",
"$. c #7D7F7B",
"%. c #806C4A",
"&. c #837D6E",
"*. c #77B938",
"=. c #7BC039",
"-. c #7DC13C",
";. c #7F817C",
":. c #8AE234",
">. c #8AE235",
",. c #8BE236",
"<. c #8CE237",
"1. c #90E33E",
"2. c #81837E",
"3. c #91E440",
"4. c #91E441",
"5. c #95E546",
"6. c #95E547",
"7. c #96E549",
"8. c #97E54A",
"9. c #9AE64F",
"0. c #9BE651",
"q. c #9BE652",
"w. c #9DE755",
"e. c #94C862",
"r. c #A5E962",
"t. c #A6E964",
"y. c #A6E965",
"u. c #838580",
"i. c #838681",
"p. c #848580",
"a. c #848681",
"s. c #848682",
"d. c #848782",
"f. c #858782",
"g. c #868882",
"h. c #868983",
"j. c #868984",
"k. c #888A85",
"l. c #898B86",
"z. c #8A8C87",
"x. c #8B8D88",
"c. c #8C8D89",
"v. c #8C8E89",
"b. c #8D8F89",
"n. c #8D8F8A",
"m. c #8E908B",
"M. c #8F918B",
"N. c #8F918C",
"B. c #90928D",
"V. c #91938D",
"C. c #91938E",
"Z. c #92948F",
"A. c #93958F",
"S. c #939690",
"D. c #949691",
"F. c #959791",
"G. c #959892",
"H. c #969892",
"J. c #969893",
"K. c #979993",
"L. c #979A94",
"P. c #989A95",
"I. c #999B95",
"U. c #999C96",
"Y. c #929799",
"T. c #9B9D98",
"R. c #9C9E98",
"E. c #9EA09B",
"W. c #9EA19B",
"Q. c #A2A59F",
"!. c #A3A59F",
"~. c #A4A7A1",
"^. c #AAABA7",
"/. c #A9ACA5",
"(. c #ABADA7",
"). c #ABACA8",
"_. c #ABADA9",
"`. c #ACAEAA",
"'. c #ADAFAB",
"]. c #AEAFAB",
"[. c #ADB0A9",
"{. c #AEB1AA",
"}. c #AEB0AC",
"|. c #AFB0AC",
" X c #AFB0AD",
".X c #B0B1AD",
"XX c #B0B1AE",
"oX c #B0B2AE",
"OX c #B1B2AE",
"+X c #B1B2AF",
"@X c #B2B3AF",
"#X c #B3B6AF",
"$X c #B2B3B0",
"%X c #B2B4B0",
"&X c #B3B4B0",
"*X c #B2B5B0",
"=X c #B3B5B0",
"-X c #B3B4B1",
";X c #B3B5B1",
":X c #B4B5B1",
">X c #B4B6B2",
",X c #B5B6B2",
"<X c #B5B7B2",
"1X c #B5B7B3",
"2X c #B6B7B3",
"3X c #B6B7B4",
"4X c #B7B8B4",
"5X c #B7B9B5",
"6X c #B8BAB5",
"7X c #B8BAB6",
"8X c #B3CE98",
"9X c #BEDBA0",
"0X c #C0DEA4",
"qX c #C1DEA5",
"wX c #C1DFA5",
"eX c #C1DFA6",
"rX c #C2DFA6",
"tX c #C4DFAA",
"yX c #D0F3AE",
"uX c #D2F3B1",
"iX c #D3F4B3",
"pX c #D3F4B4",
"aX c #D4F4B4",
"sX c #D5F4B6",
"dX c #D6F5B8",
"fX c #D7F5BA",
"gX c #D7F5BB",
"hX c #D8F5BB",
"jX c #CDCECB",
"kX c #CECFCC",
"lX c #C5CBD2",
"zX c None",
/* pixels */
"zXzXzX@ O                               . . . . . . . . + zXzXzX",
"zXzXO y Q { { { { ..{ { { { { { { { { { _ &.2.&.&.&.} U 9 + zXzX",
"zXzX  ( a q Y.lXlXlXlXY.7 u 7 u q q 7 y r %.%.F %.%.r r Q O zXzX",
"zXzX  ( 7 7 e n n n n e 9 9 7 9 9 9 9 9 2 r r e 2 9 2 9 K + zXzX",
"zXzX  P 1 =.>.>.:.:.:.>.:.:.:.>.>.>.>.>.<.>.<.<.<.<.-.1 G   zXzX",
"zXzX  G ; 1.3.3.8XqX9XeXqXqXqXqXeXqXeXeXeXeXeXqX5.5.5.1 A O zXzX",
"zXzX  A ; 8.9.9.tXfXaXaXiXpXpXpXiXaXaXfXhXhXfXhXw.w.w.; A   zXzX",
"zXzX  V & 0.0.5.9XyXyXyXyXyXyXyXyXyXyXyXyXiXaXfXr.t.t.& z O zXzX",
"zXzX  c & *.:.>.>.>.>.>.>.:.:.>.>.>.:.:.:.>.>.>.>.8.e.& j o zXzX",
"zXzX  A : ; ; ; ; : : : > 1 > ; ; ; ; 1 : : : ; : ; ; < l o zXzX",
"zXzX1 ).k.k.k.k.k.k.j.j.k.k.k.k.j.j.k.k.k.k.k.k.j.j.k.x._.3 zXzX",
"zXzXa _.K p p K a.+.} ' @.2.+. .' @.a.+.} ^ @.u.+...' $._.d zXzX",
"zXzXp _.p ..I = ^ jXkX:XC ^ kXkX:XS Q jXkX:XC _ /.(.R.C `.a zXzX",
"zXzXp _.& d u # F v.v.a.g F v.v.d.h F v.v.a.g F k.v.a.g `.d zXzX",
"zXzXp _.b     c Q g p s Q ~ g p p I Q g s s Q ^ g a p Q `.p zXzX",
"zXzXp _.K p p K 2.@. .^ @.2.+. .^ @.a.+.} ^ @.a.+. .^ 2..Xd zXzX",
"zXzXp `.p +.E = ~ kXkX:XC ~ kXkX:XC _ jXkX:XC ^ /.(.R.C .Xa zXzX",
"zXzXp ^.& s e # F v.v.a.g F v.v.a.h F c.v.a.g F k.v.a.g .Xg zXzX",
"zXzXp `.b     z ~ g p p Q ~ g p p Q _ g p p Q ' g p p ' .Xp zXzX",
"zXzXp ^.K p p K 2.+. .' @.2.+. ._ $.a.+. .^ 2.g.+. .^ 2..Xg zXzX",
"zXzXp `.p +.I = _ kXkX:XC ~ jXkX:XC ( kXkX-XC +.`.{.W.J :Xd zXzX",
"zXzXp _.& p w # F v.v.p.g F v.v.a.g D n.n.a.g Q #X{.!.D -Xp zXzX",
"zXzXp _.b   O l ~ g s a Q ' g d a ( { j a p ^ Q ~.!.T.N &Xp zXzX",
"zXzXp _.K p p I a.+. .~ ;.a.+.' _ &.k.+.{ ' 2.J H.S.N.k :Xd zXzX",
"zXzXp _.p +.I = _ kXkX&XS ^ kXkX&XC ^ /._.R.C C k.k.k.g :Xs zXzX",
"zXzXa `.& a e # D x.v.a.h D v.v.a.g F z.z.a.h N a.k.u.a 1Xd zXzX",
"zXzXp `.b     b _ d u d ^ ' g p d _ ..g s s ' +.g s p ..:Xs zXzX",
"zXzXd /.B.x.v.v.m.m.N.N.V.V.Z.Z.S.S.S.D.H.H.L.L.P.I.I.W.:Xd zXzX",
"zXzXq 2./.|.|..X X X.X.X&X&X&X&X&X&X:X1X:X4X4X4X4X7X7X#Xu.7 zXzX",
"zXzXzX2 p p p a p d d s p u d p a p s d p p d p p p p d 7 zXzXzX",
"zXzXzXzXzXzXzXzXzXzXzXzXzXzXzXzXzXzXzXzXzXzXzXzXzXzXzXzXzXzXzXzX",
"zXzXzXzXzXzXzXzXzXzXzXzXzXzXzXzXzXzXzXzXzXzXzXzXzXzXzXzXzXzXzXzX"
};
