/* XPM */
static char *emacs_32x32[] = {
/* columns rows colors chars-per-pixel */
"32 32 151 2 ",
"   c #3E1E5D",
".  c #442161",
"X  c #492266",
"o  c #4A256B",
"O  c #4B286F",
"+  c #4D2772",
"@  c #4F2974",
"#  c #522774",
"$  c #532975",
"%  c #542D7D",
"&  c #5B297C",
"*  c #56317E",
"=  c #562D81",
"-  c #592E83",
";  c #573082",
":  c #5B3285",
">  c #5E338A",
",  c #5E388D",
"<  c #662E8A",
"1  c #6A2F8E",
"2  c #613D8C",
"3  c #6F3797",
"4  c #673A91",
"5  c #75339B",
"6  c #644292",
"7  c #684195",
"8  c #664897",
"9  c #664798",
"0  c #6D469C",
"q  c #67489A",
"w  c #6A4A9B",
"e  c #6B509F",
"r  c #754DA7",
"t  c #7C47AE",
"y  c #6D53A3",
"u  c #7158A6",
"i  c #755EAC",
"p  c #7E56B4",
"a  c #7E5AB5",
"s  c #7360AD",
"d  c #7764B1",
"f  c #7969B3",
"g  c #7E64B9",
"h  c #7D6DB9",
"j  c #843CAE",
"k  c #8B3EB7",
"l  c #923FBE",
"z  c #8144AE",
"x  c #854FB7",
"c  c #8D45BC",
"v  c #864CB8",
"b  c #894ABA",
"n  c #9142BE",
"m  c #8252B5",
"M  c #805EB7",
"N  c #8850B9",
"B  c #805FB8",
"V  c #9053BE",
"C  c #8163B9",
"Z  c #8964BB",
"A  c #816BBC",
"S  c #896CBE",
"D  c #8172BE",
"F  c #933FC0",
"G  c #9340C0",
"H  c #9857C2",
"J  c #9C5FC5",
"K  c #9567C1",
"L  c #9F67C7",
"P  c #8276C0",
"I  c #8877C1",
"U  c #827CC3",
"Y  c #8D7CC3",
"T  c #9372C0",
"R  c #9F77C7",
"E  c #907EC5",
"W  c #9D7DC5",
"Q  c #A17BC8",
"!  c #8381C5",
"~  c #9082C6",
"^  c #9B82C7",
"/  c #9D84C8",
"(  c #9B8CCB",
")  c #9D96CF",
"_  c #A288CA",
"`  c #AB8DCE",
"'  c #AC93CF",
"]  c #A49DD2",
"[  c #AB9DD3",
"{  c #BD9AD8",
"}  c #ACA2D5",
"|  c #B2A3D6",
" . c #BDA6D8",
".. c #B5ACD9",
"X. c #BDADDA",
"o. c #B6B2DC",
"O. c #BBB3DD",
"+. c #C7A7DE",
"@. c #C6AADD",
"#. c #C2B5DE",
"$. c #C3BBE1",
"%. c #CABCE1",
"&. c #C6C2E3",
"*. c #CBC3E4",
"=. c #CDC2E4",
"-. c #CBC6E5",
";. c #CDC7E5",
":. c #CEC6E5",
">. c #CDC9E6",
",. c #D5C1E6",
"<. c #D1C9E7",
"1. c #D2C8E6",
"2. c #DBCDEA",
"3. c #D7D1EA",
"4. c #D9D5EC",
"5. c #D9D6EC",
"6. c #DCD9ED",
"7. c #DFD8ED",
"8. c #E4D9EF",
"9. c #E3DEF0",
"0. c #E6DFF1",
"q. c #E4DFF0",
"w. c #E7DDF1",
"e. c #E9DFF2",
"r. c #E7E3F2",
"t. c #E7E5F3",
"y. c #EDE6F4",
"u. c #E9E8F4",
"i. c #EBE8F4",
"p. c #ECE9F5",
"a. c #EEEAF5",
"s. c #EFECF6",
"d. c #EDE8F5",
"f. c #F1EFF7",
"g. c #F1EBF7",
"h. c #F3EEF8",
"j. c #F3F1F9",
"k. c #F4F2F9",
"l. c #F5F3FA",
"z. c #F5F4FA",
"x. c #F6F5FA",
"c. c #F6F1F9",
"v. c #F8F8FC",
"b. c #FCFBFD",
"n. c #FDFDFE",
"m. c #FEFDFE",
"M. c white",
"N. c #FEFEFF",
"B. c #FEFEFF",
"V. c None",
"C. c black",
/* pixels */
"V.V.V.V.V.V.V.V.V.V.V.V.V.V.V.V.V.V.V.V.V.V.V.V.V.V.V.V.V.V.V.V.",
"V.V.V.V.V.V.V.V.V.V.V.V.: > > , , : - * V.V.V.V.V.V.V.V.V.V.V.V.",
"V.V.V.V.V.V.V.V.V.= > e h ! ! ! U U U d 8 ; $ V.V.V.V.V.V.V.V.V.",
"V.V.V.V.V.V.V.% > s ! ! ! ! ! U U U U U U h y % V.V.V.V.V.V.V.V.",
"V.V.V.V.V.V.- q ! ! ! ! ! ! U U U U U P P D D h : @ V.V.V.V.V.V.",
"V.V.V.V.V.- u ! ! ! ! ! ! U U U ) O.4.r.:.~ D A h 6 @ V.V.V.V.V.",
"V.V.V.V.; u ! ! ! ! ! U U U ] &.>.-.6.M.M.j.I A A A 6 o V.V.V.V.",
"V.V.V.% q ! ! ! ! ! U U U U U D P I ] j.M.M.[ A A A C * V.V.V.V.",
"V.V.V.> U ! ! ! ! ! ] o.$.-.5.t.z.M.M.M.M.M.( A C C g p @ C.C.C.",
"V.V.% i ! ! ! U ! u.M.M.M.M.M.M.M.l.p.9.3.[ A C C C C B , C.C.C.",
"V.V.> U ! ! U U U v.M.M.M.t...) D A A A C A C C C C B B a O C.C.",
"V.V.w ! ! U U U U } M.M.M.( A A A A A A C C C C C B B a a * C.C.",
"V.; f U U U U P P P ] l.M.f.} A A A C C C g B B C M a a a 6 . V.",
"V.: U U U U P P P D D Y *.b.M.u.| A C C C C B M a a a p a r o V.",
"V.: U U P P P h D D D D A Y #.f.M.s...Z C M M a a a p p p p o V.",
"V.: U P P P P P D A E | :.8.u.f.M.M.M.p.^ M a a a p p p x m o V.",
"V.: P U P D D A ( 2.M.M.M.M.M.b.7.X./ B a a a a p p m m x x X V.",
"V.: D D D D D O.v.M.M.M.M.y.| S g B M M a a p p p m m x x v o V.",
"V.- D D A D [ M.M.M.M.M.#.C C M M M a a p a p m m x x x b t X V.",
"V.% s D A A <.M.M.M.M.=.C C M Z a a a p a p m m x x x b b 3 . V.",
"V.V.6 A A A | M.M.M.M.#.C M M M a a p p p m m x v v b c c # V.V.",
"V.V.% A A A A #.M.M.M.M.9.X._ S Z m p m m x x v b b b c c . V.V.",
"V.V.$ y A C C g ^ 1.b.M.M.M.M.m.M.M.M.b.l.f.8.+.V c c c <   V.V.",
"V.V.V.% g C C M g g Z ' #.8.a.a.y.9.8.9.M.M.M.h.L c n k X V.V.V.",
"V.V.V.+ 2 g C B B a a a a p m m m R @.d.M.g.+.H c l l # V.V.V.V.",
"V.V.V.V.@ w B M a a a a M W @.2.l.e.,.{ L b n n n F < . V.V.V.V.",
"V.V.V.V.V.+ 0 a a p p T ' ` Q S N b b b c c n n l 1 . V.V.V.V.V.",
"V.V.V.V.V.V.O 2 p p p p x x x b v b c c n n n l & . V.V.V.V.V.V.",
"V.V.V.V.V.V.V.o $ 0 p m m v b b b b n n G G 5 X   V.V.V.V.V.V.V.",
"V.V.V.V.V.V.V.V.V.o # 4 t b b b c n n j 1 X . V.V.V.V.V.V.V.V.V.",
"V.V.V.V.V.V.V.V.V.V.V.. o o # $ $ O X X V.V.V.V.V.V.V.V.V.V.V.V.",
"V.V.V.V.V.V.V.V.V.V.V.V.V.V.V.V.V.V.V.V.V.V.V.V.V.V.V.V.V.V.V.V."
};
