/* XPM */
static char *web_browser[] = {
/* columns rows colors chars-per-pixel */
"32 32 183 2 ",
"   c #0F203B",
".  c #2C3035",
"X  c #162F54",
"o  c #183258",
"O  c #173158",
"+  c #1F3C67",
"@  c #1A3C6E",
"#  c #1C3E71",
"$  c #1F4172",
"%  c #2A4365",
"&  c #22416E",
"*  c #2C486B",
"=  c #344C6C",
"-  c #3A4F6D",
";  c #214273",
":  c #2E4D74",
">  c #28487A",
",  c #324D71",
"<  c #314D78",
"1  c #2F527B",
"2  c #35547A",
"3  c #4C4E4A",
"4  c #5A5D59",
"5  c #555858",
"6  c #5E605D",
"7  c #60625E",
"8  c #455B7C",
"9  c #596167",
"0  c #536174",
"q  c #64696C",
"w  c #6E7372",
"e  c #61707F",
"r  c #747773",
"t  c #797C7A",
"y  c #345584",
"u  c #325986",
"i  c #345C8C",
"p  c #3F5E8E",
"a  c #355F90",
"s  c #396698",
"d  c #3B6697",
"f  c #425E87",
"g  c #44618C",
"h  c #4A628B",
"j  c #4D6C8E",
"k  c #566881",
"l  c #5C6F8B",
"z  c #5E708C",
"x  c #436291",
"c  c #4E6A93",
"v  c #456A99",
"b  c #526E98",
"n  c #5C7494",
"m  c #53719D",
"M  c #5E769C",
"N  c #687583",
"B  c #677C99",
"V  c #5B79A6",
"C  c #597AA7",
"Z  c #637AA3",
"A  c #778392",
"S  c #73839E",
"D  c #6386AC",
"F  c #6E8BAE",
"G  c #6785AA",
"H  c #7A8BA6",
"J  c #778AAA",
"K  c #7B93AC",
"L  c #668AB2",
"P  c #6A8CB3",
"I  c #758DB1",
"U  c #7796BA",
"Y  c #7B99BB",
"T  c #7B92B2",
"R  c #828583",
"E  c #8B8C89",
"W  c #8E908F",
"Q  c #828C9B",
"!  c #86919D",
"~  c #919391",
"^  c #999B98",
"/  c #92999D",
"(  c #8391A4",
")  c #8294AB",
"_  c #8995A7",
"`  c #969FA8",
"'  c #8897B0",
"]  c #899BB6",
"[  c #819BBC",
"{  c #8C9DBC",
"}  c #8498B7",
"|  c #9CA4AB",
" . c #96A0AB",
".. c #8DA1B9",
"X. c #94A3BB",
"o. c #98A5BB",
"O. c #AEAEA3",
"+. c #AEAFA8",
"@. c #B0B0A5",
"#. c #B3B3AA",
"$. c #B9B9AF",
"%. c #A7AFB7",
"&. c #ABB4BF",
"*. c #AFB1B0",
"=. c #B0B2B1",
"-. c #BDBDB5",
";. c #B6BABD",
":. c #C3C3BB",
">. c #8AA4C2",
",. c #85A2C2",
"<. c #95A4C3",
"1. c #9CADC4",
"2. c #9CACC9",
"3. c #95AAC5",
"4. c #9CB3CC",
"5. c #A1AEC4",
"6. c #A4B2C3",
"7. c #A3B3CB",
"8. c #A8B5CE",
"9. c #ABBBCC",
"0. c #A9B6C8",
"q. c #B4BDC5",
"w. c #BABFC2",
"e. c #A6BAD2",
"r. c #ADBBD4",
"t. c #A1B7D1",
"y. c #B2BED4",
"u. c #BEC3C3",
"i. c #BBC4CF",
"p. c #B4C0CE",
"a. c #B4C3D5",
"s. c #BDC8D3",
"d. c #B3C5D9",
"f. c #B9C9DC",
"g. c #BBC7D4",
"h. c #CACAC3",
"j. c #C4CACD",
"k. c #CACACA",
"l. c #D2D2CC",
"z. c #C7CDD3",
"x. c #C8CED4",
"c. c #CCD1D5",
"v. c #C5D1DD",
"b. c #CCD3DB",
"n. c #D4D5D4",
"m. c #DADAD5",
"M. c #D1D7DC",
"N. c #D5DADD",
"B. c #DCDDDC",
"V. c #DFE0DF",
"C. c #E1E1DD",
"Z. c #C3D2E3",
"A. c #C9D5E3",
"S. c #CFDCE9",
"D. c #D6DCE2",
"F. c #DBDFE2",
"G. c #D3DEEA",
"H. c #DDE1E4",
"J. c #D6E2EE",
"K. c #DCE4EB",
"L. c #DAE5F1",
"P. c #E4E4E3",
"I. c #E8E8E5",
"U. c #E2E7EB",
"Y. c #E4E9ED",
"T. c #ECEDEB",
"R. c #F1F1EE",
"E. c #E3EBF3",
"W. c #E9EEF3",
"Q. c #EDF1F5",
"!. c #EAF3FB",
"~. c #F2F2F1",
"^. c #F1F2F2",
"/. c #F5F5F3",
"(. c #F6F6F5",
"). c #F3F4F3",
"_. c #F8F8F7",
"`. c #F1F6FA",
"'. c #F1F8FF",
"]. c #F6FAFF",
"[. c #FDFDFD",
"{. c None",
"}. c black",
/* pixels */
"{.{.{.{.{.{.{.{.{.{.{.{.{.{.{.{.{.{.{.{.{.{.{.{.{.{.{.{.{.{.{.{.",
"{.{.{.{.{.{.{.{.{.{.{.{.V V V C C C V {.{.{.{.{.{.{.{.{.{.{.{.{.",
"{.{.{.{.{.{.{.{.{.m m [ r.f.v.A.f.e.3.P m c {.{.{.{.{.{.{.{.{.{.",
"{.{.{.{.{.{.{.x x 7.E.K.K.U.T.I.a.>.>.2.e.P g p {.{.{.{.{.{.{.{.",
"{.{.{.{.{.{.y G J.W.Y.J.U.`.(.(.a.>.Y P L 4...d y {.{.{.{.{.{.{.",
"{.{.{.{.{.> X.T.Q.K.U.K.K.T.c.9.A.d.,.U N.H.N.a.B > {.{.{.{.{.{.",
"{.{.{.{.; ] T.W.J.T.T.`.Q.I.L.G.9.e.d.M.M.1.T.U.D.n @ {.{.{.{.{.",
"{.{.{.$ c I.W.K.Q.(.).'.!.!.W.L.L.d.s.a.1.M.T.R.T.v.< # {.{.{.{.",
"{.{.{.$ N.T.T.T.(.I.M.J.!.'.E.J.S.D.s./.R.R.R.T.T.R.%.@ {.{.{.{.",
"{.{.; ..I.T.R./.Q.B.p.G.].].'.J.Z.A.T.I.R.R.T.R.T.T.P.z # {.{.{.",
"{.{.; F.C.R.T./.j.&.L.'.`.H.'.W.Z.B.Y.K u.q.c.T.T.T.C.q.$ {.{.{.",
"{.{.M P.C.R.R.V.z.!.].!.R 7 `.!.Z. .K.b.3.T j ) T.T.m.l.h {.{.{.",
"{.$ 6.m.I.B.N.z.W.].`.R V.6 W.W.A.m.(.(.I.P.x.b.T.I.l.m.H # {.{.",
"{.$ s.j.0.9.s.Y.L.L.R T.[.4 !.E.j.Q.(./.R.R.T.x.q.P.A  .o.# {.{.",
"{.# c.q.t.f.f.L.v.t T.[.[.6 W.v.T.R._.R./.R.T.T._ C.l.! X.@ {.{.",
"{.# a.u.n.s.e.v.t T.[.[.[.6 Z. .R./.(.T.R.T.T.Y.q.O.` 8 5.@ {.{.",
"{.# 4.U ] x.5.t R._.(._.[.4 4.Y P._.R.R.R.T.T.C.V.+.N f <.# {.{.",
"{.$ >.U P J t ^.(.^./.`.[.6 t.d.q.B.w.n.T.R.I.V.l.:.k l { # {.{.",
"{.# F [ Z w ).).T.T.T.^.[.6 d.3.P D >.v n.C.V.l.h./ 2 J T # {.{.",
"{.{.p ..w ).R.P.I.I.Y.T.[.4 L D Y Y d i | m.l.h.:.8 h 3.c {.{.{.",
"{.{.& r ).T.B.H.U.P.P.I.[.4 >...D s i u A h.:.-.#.f Z 8.; {.{.{.",
"{.{.w (.(.T.T.T.T.F.V.V.[.4 d d s u u 1 z -.$.#.@.M 7.Z # {.{.{.",
"{.4 ^ *.*.*.=.[.P.).V.F.[.4 i i u 1 1 * w #.@.@.Q { 3.# {.{.{.{.",
"{.{.{.% , Q ~ (.P.[.(.m.[.5 y 1 : * * % 0 +.@.+.} r.y # {.{.{.{.",
"{.{.{.{.@ 9 T.B.(.E k.).[.4 < , = 8 - 8 l #.-.0.r.Z # {.{.{.{.{.",
"{.{.{.{.{.W ).B.I.r r k.[.4 l k k B B H J &.j.y.M @ {.{.{.{.{.{.",
"{.{.{.{.5 T.m.).^ ;.( q n.4 ( ( _ ' ] { <.y.2.y @ {.{.{.{.{.{.{.",
"{.{.{.{.r (.n.W.5 B &.0.w 4 X.X.o.5.8.y.y.Z # X {.{.{.{.{.{.{.{.",
"{.{.{.{.6 C.[.~ . X $ g J _ 8.y.8.5.} h ; o {.{.{.{.{.{.{.{.{.{.",
"{.{.{.{.{.5 6 3 {.{.{.  O + & ; & + O   {.{.{.{.{.{.{.{.{.{.{.{.",
"{.{.{.{.{.{.{.{.{.{.{.{.{.{.}.}.}.}.}.}.{.{.{.{.{.{.{.{.{.{.{.{.",
"{.{.{.{.{.{.{.{.{.{.{.{.{.{.}.}.}.}.}.}.{.{.{.{.{.{.{.{.{.{.{.{."
};
