/* XPM */
static char *xhcat[] = {
/* columns rows colors chars-per-pixel */
"48 48 172 2 ",
"   c #010000",
".  c #0A0502",
"X  c #0C0902",
"o  c #130B03",
"O  c #1B0D04",
"+  c #151104",
"@  c #1B1504",
"#  c #1E1903",
"$  c #101010",
"%  c #1C1C1C",
"&  c #210F05",
"*  c #251105",
"=  c #291405",
"-  c #221E04",
";  c #292405",
":  c #2F2A05",
">  c #481E02",
",  c #5A1F00",
"<  c #551A05",
"1  c #5C2200",
"2  c #5A2C00",
"3  c #542701",
"4  c #4C3C04",
"5  c #473804",
"6  c #5E3713",
"7  c #5E3813",
"8  c #602103",
"9  c #662D00",
"0  c #6C2D00",
"q  c #722C00",
"w  c #663000",
"e  c #6D3200",
"r  c #743F05",
"t  c #703913",
"y  c #4C4304",
"u  c #9A1B05",
"i  c #A21E07",
"p  c #9A2405",
"a  c #9A2C04",
"s  c #972808",
"d  c #963600",
"f  c #9B3302",
"g  c #963F00",
"h  c #9C3D00",
"j  c #973708",
"k  c #AA2E08",
"l  c #A52908",
"z  c #B62A06",
"x  c #A83808",
"c  c #B73804",
"v  c #B93706",
"b  c #CC3C07",
"n  c #C13706",
"m  c #FF2600",
"M  c #FF2C00",
"N  c #FF3400",
"B  c #FF3B00",
"V  c #814806",
"C  c #924900",
"Z  c #8A5008",
"A  c #84590A",
"S  c #865408",
"D  c #935708",
"F  c #9D5E06",
"G  c #945B13",
"H  c #AD4207",
"J  c #B74704",
"K  c #BE4E06",
"L  c #8F6309",
"P  c #9B6A05",
"I  c #936008",
"U  c #AE6E08",
"Y  c #A56606",
"T  c #A47407",
"R  c #AE7C08",
"E  c #BF7E06",
"W  c #B77608",
"Q  c #CC4307",
"!  c #C74C03",
"~  c #DC4D04",
"^  c #D64604",
"/  c #C85C05",
"(  c #DA5A05",
")  c #FF4400",
"_  c #FF4C00",
"`  c #E35405",
"'  c #EF5300",
"]  c #EB5E00",
"[  c #E65A05",
"{  c #FF5300",
"}  c #F35D00",
"|  c #FF5C00",
" . c #F35600",
".. c #E96400",
"X. c #E96B01",
"o. c #E16105",
"O. c #F36200",
"+. c #FF6300",
"@. c #FE6D00",
"#. c #E97C00",
"$. c #EA7300",
"%. c #FF7300",
"&. c #F37D00",
"*. c #FE7900",
"=. c #AD8108",
"-. c #B68607",
";. c #BF8F05",
":. c #B78408",
">. c #B68B07",
",. c #BE9604",
"<. c #CA8905",
"1. c #C79704",
"2. c #C79806",
"3. c #D69906",
"4. c #E98100",
"5. c #EB8D01",
"6. c #F48200",
"7. c #FF8700",
"8. c #FF8C00",
"9. c #F38C00",
"0. c #FF9400",
"q. c #FF9C00",
"w. c #F49200",
"e. c #C7A106",
"r. c #CEA107",
"t. c #CFAC07",
"y. c #D5AB06",
"u. c #D7B705",
"i. c #DCB304",
"p. c #FFA300",
"a. c #FFAB00",
"s. c #E3BC04",
"d. c #FFB400",
"f. c #FFBB00",
"g. c #DEC103",
"h. c #E6C604",
"j. c #FFC300",
"k. c #FFCB00",
"l. c #E7D204",
"z. c #FED300",
"x. c #FEDB00",
"c. c #FDE200",
"v. c #FFE800",
"b. c #A9A9A9",
"n. c #D9C5A8",
"m. c #E6CEB5",
"M. c #C4C4C3",
"N. c gray81",
"B. c #D3C7C0",
"V. c #D3C8C0",
"C. c LightGray",
"Z. c #D7D7D7",
"A. c #DFDFDF",
"S. c gray86",
"D. c #EFD2C1",
"F. c #F1D2C0",
"G. c #E5E5E5",
"H. c #E1E1E1",
"J. c #ECECEC",
"K. c gray93",
"L. c #EEEEEE",
"P. c #EFEFEF",
"I. c #EBEBEB",
"U. c gray95",
"Y. c #F3F3F3",
"T. c #F6F6F6",
"R. c gray97",
"E. c #F9F9F9",
"W. c gray98",
"Q. c #FDFDFD",
"!. c None",
"~. c black",
/* pixels */
"!.!.!.!.!.!.!.!.!.!.!.!.!.!.!.!.!.!.!.!.!.!.!.!.!.!.!.!.!.!.!.!.!.!.!.!.!.!.!.!.!.!.!.!.!.!.!.!.",
"!.!.!.!.!.!.!.!.!.!.!.!.!.!.!.!.!.!.!.!.!.!.!.!.!.!.!.!.!.!.!.!.!.!.!.!.!.!.!.!.!.!.!.!.!.!.!.!.",
"!.!.!.!.!.!.!.!.!.!.  !.!.!.!.!.!.!.!.!.!.!.!.!.!.!.!.!.!.!.!.!.!.!.!.!.!.  !.!.!.!.!.!.!.!.!.!.",
"!.!.!.!.!.!.!.!.    X   !.!.!.!.!.!.!.!.!.!.!.!.!.!.!.!.!.!.!.!.!.!.!.!.  X     !.!.!.!.!.!.!.!.",
"!.!.!.!.!.!.!.    y l.:   !.!.!.!.!.!.!.!.!.!.!.!.!.!.!.!.!.!.!.!.!.!.  : h.y     !.!.!.!.!.!.!.",
"!.!.!.!.!.!.    y c.v.l.;   !.!.!.!.!.!.!.!.!.!.!.!.!.!.!.!.!.!.!.!.  ; h.z.z.4     !.!.!.!.!.!.",
"!.!.!.!.!.    y c.c.c.c.h.;   !.!.!.!.!.!.!.!.!.!.!.!.!.!.!.!.!.!.  - s.z.k.z.k.4     !.!.!.!.!.",
"!.!.!.!.    y x.c.c.c.c.x.g.#   !.!.!.!.!.!.!.!.!.!.!.!.!.!.!.!.  @ i.z.k.k.k.k.j.4     !.!.!.!.",
"!.!.!.    y x.x.x.x.x.x.x.x.u.+   !.!.!.!.!.!.!.!.!.!.!.!.!.!.  @ y.k.k.k.k.j.j.j.j.4     !.!.!.",
"!.!.    y z.z.x.x.z.x.z.z.z.z.y.+   !.!.!.!.!.!.!.!.!.!.!.!.  + r.j.j.j.j.j.j.j.j.f.f.5     !.!.",
"!.!.  5 z.z.z.z.z.z.z.z.k.z.z.k.e.X   !.!.!.!.!.!.!.!.!.!.  X 1.j.f.j.j.f.f.f.f.f.f.f.d.5   !.!.",
"!.!.  # i.z.z.k.k.k.k.k.k.k.k.k.k.,.X   !.!.!.!.!.!.!.!.  . ;.j.f.f.f.f.f.f.f.f.d.d.f.3.@   !.!.",
"!.!.!.  @ y.k.k.k.k.j.k.j.j.j.j.j.j.>..   !.!.!.!.!.!.  . -.f.f.d.d.f.d.d.d.d.a.d.d.3.o   !.!.!.",
"!.!.!.!.  + r.j.j.j.j.j.j.j.j.f.f.f.j.=..   !.!.!.!.  . R d.d.d.d.d.d.a.d.a.d.a.a.1.o   !.!.!.!.",
"!.!.!.!.!.  + 1.j.f.f.f.f.f.f.f.f.f.d.f.T     !.!.    T d.d.d.a.a.a.a.a.a.a.a.a.<.o   !.!.!.!.!.",
"!.!.!.!.!.!.  X ;.f.f.f.f.d.f.d.d.d.d.d.d.P         P a.a.a.a.a.a.a.a.p.a.a.a.E X   !.!.!.!.!.!.",
"!.!.!.!.!.!.!.  X :.d.d.d.d.d.a.a.d.a.d.a.a.D     L a.p.a.a.p.a.a.p.p.p.p.q.W X   !.!.!.!.!.!.!.",
"!.!.!.!.!.!.!.!.  X R a.a.a.a.a.a.a.a.a.a.a.a.A A a.p.a.q.p.p.q.p.q.q.q.q.U .   !.!.!.!.!.!.!.!.",
"!.!.!.!.!.!.!.!.!.    T a.a.a.a.p.a.p.p.a.p.p.p.q.p.q.q.q.q.q.q.q.q.q.q.Y .   !.!.!.!.!.!.!.!.!.",
"!.!.!.!.!.!.!.!.!.!.    P p.p.p.q.p.p.q.q.q.q.q.q.q.q.q.q.q.0.0.0.0.0.F     !.!.!.!.!.!.!.!.!.!.",
"!.!.!.!.!.!.!.!.!.!.!.    I p.q.q.q.q.q.q.q.q.q.q.0.0.0.0.0.0.0.0.0.D     !.!.!.!.!.!.!.!.!.!.!.",
"!.!.!.!.!.!.!.!.!.!.!.!.    S 5.w.q.0.0.0.0.0.0.0.0.0.0.0.8.8.8.8.Z     !.!.!.!.!.!.!.!.!.!.!.!.",
"!.!.!.!.!.!.!.!.!.!.!.!.!.  b.S.n.9.0.0.0.0.8.8.8.8.8.7.8.7.8.7.V     !.!.!.!.!.!.!.C.C.!.!.!.!.",
"!.!.!.!.!.!.!.!.!.!.!.!.!.!.G.G.G.G 4.4.#.4.#.4.6.7.7.6.#.#.#.r     !.!.!.!.!.!.!.!.I.G.!.!.!.!.",
"!.!.A.L.I.I.L.I.L.I.I.H.!.!.L.L.J.L.J.L.L.L.J.L.m.&.&.m.L.L.L.L.L.L.L.L.L.H.!.!.H.P.P.P.P.G.!.!.",
"!.!.U.U.U.U.U.U.U.U.U.M.!.!.U.U.U.U.U.U.U.U.U.T.Y.C $.Y.Y.Y.Y.Y.Y.Y.Y.Y.Y.Y.!.!.G.Y.Y.Y.Y.M.!.!.",
"!.!.T.T.T.%                 T.T.T.7 2 2 2 6 T.T.T.e $.T.T.E.6 3 o     % R.R.$ !.!.R.R.R.%   !.!.",
"!.!.E.E.E.  !.!.!.!.!.!.!.  E.E.E.w *.*.*.X.E.E.E.e X.E.E.E.9 @.X.=     R.W.Z.!.!.W.W.W.  !.!.!.",
"!.!.Q.E.E.  !.!.!.!.!.!.  + W.Q.E.e %.%.%.X.E.E.W.e ..Q.W.W.0 @.@.o.*   E.Q.Q.!.!.W.Q.W.  !.!.!.",
"!.!.Q.Q.Q.% !.!.!.!.    O / Q.Q.Q.e %.%.@...Q.Q.Q.0 ..Q.Q.Q.t ..] O.( O Q.Q.Q.  !.Q.Q.Q.% !.!.!.",
"!.!.Q.Q.Q.Q.Q.Q.Q.Q.Q.M./ ..Q.Q.Q.0 @.@.@...Q.Q.Q.0 ] Q.Q.Q.Q.Q.Q.F.} ! Q.Q.Q.  !.Q.Q.Q.Q.L.~.~.",
"!.!.U.Q.Q.Q.Q.Q.Q.Q.Q.B.C O.F.Q.B.q @.+.+.} D.Q.M.0 } F.Q.Q.Q.Q.Q.B.d  .F.Q.M.  !.L.Q.Q.Q.C.~.~.",
"!.!.!.              > 1 C +.] q 1 h +.+.+.[ =     O [ ' q , , , , , f { ' 8     !.!.        !.!.",
"!.!.!.!.!.!.!.  . ! +.+.| +.+.+.+.| | | ` *   !.!.  & ` | { { { { { { { { _ n X   !.!.!.!.!.!.!.",
"!.!.!.!.!.!.    J +.| | | | | | | | | ~ &   !.!.!.!.  & ~ _ _ { _ _ _ _ _ _ _ c .   !.!.!.!.!.!.",
"!.!.!.!.!.    H | | | | | | { { { { ^ O   !.!.!.!.!.!.  O ^ _ _ _ _ _ _ _ ) _ ) k .   !.!.!.!.!.",
"!.!.!.!.    x | { { { { { { { { _ Q o   !.!.!.!.!.!.!.!.  O b ) ) ) ) ) ) ) ) B ) l     !.!.!.!.",
"!.!.!.    j { { { { { { _ _ _ _ Q o   !.!.!.!.!.!.!.!.!.!.  o b ) ) ) B B B B B B B s     !.!.!.",
"!.!.!.  < { _ _ _ _ _ _ _ _ _ n o   !.!.!.!.!.!.!.!.!.!.!.!.  . n B N B B N B N N N N <   !.!.!.",
"!.!.!.    f _ _ ) _ ) ) ) ) v X   !.!.!.!.!.!.!.!.!.!.!.!.!.!.  . z N N N N N N N N p     !.!.!.",
"!.!.!.!.    a ) ) ) ) ) ) v .   !.!.!.!.!.!.!.!.!.!.!.!.!.!.!.!.  . z M N M M M M u     ~.~.~.~.",
"!.!.!.!.!.    s ) B B B k     ~.!.!.!.!.!.!.!.!.!.!.!.!.!.!.!.!.~.    l M M M m u     ~.~.~.~.~.",
"!.!.!.!.!.!.    p B N l     ~.~.!.!.!.!.!.!.!.!.!.!.!.!.!.!.!.!.~.~.    i m m u     ~.~.~.~.~.~.",
"!.!.!.!.!.!.~.    p p     ~.~.~.!.!.!.!.!.!.!.!.!.!.!.!.!.!.!.!.~.~.~.    u u     ~.~.~.~.~.~.~.",
"!.!.!.!.~.~.~.~.        ~.~.~.~.!.!.!.!.!.!.!.!.!.!.!.!.!.!.!.!.~.~.~.~.        ~.~.~.~.~.~.~.~.",
"!.!.!.!.~.~.~.~.~.    ~.~.~.~.~.!.!.!.!.!.!.!.!.!.!.!.!.!.!.!.!.~.~.~.~.!.    !.~.~.~.~.~.~.~.~.",
"!.!.!.!.~.~.~.~.~.~.~.~.~.~.~.~.!.!.!.!.!.!.!.!.!.!.!.!.!.!.!.!.~.~.~.~.~.~.~.~.~.~.~.~.~.~.~.~.",
"!.!.!.!.~.~.~.~.~.~.~.~.~.~.~.~.!.!.!.!.!.!.!.!.!.!.!.!.!.!.!.!.~.~.~.~.~.~.~.~.~.~.~.~.~.~.~.~."
};
